<svg width="12" height="12" viewBox="0 0 12 12" fill="none" xmlns="http://www.w3.org/2000/svg">
<g clip-path="url(#clip0_879_10620)">
<path d="M11 5.54005V6.00005C10.9994 7.07827 10.6503 8.12739 10.0047 8.99097C9.35908 9.85454 8.45164 10.4863 7.41768 10.792C6.38372 11.0977 5.27863 11.061 4.26724 10.6873C3.25584 10.3137 2.39233 9.6231 1.80548 8.71859C1.21863 7.81407 0.939896 6.74409 1.01084 5.66821C1.08178 4.59234 1.4986 3.56822 2.19914 2.74859C2.89968 1.92896 3.84639 1.35775 4.89809 1.12013C5.9498 0.882509 7.05013 0.991223 8.035 1.43005" stroke="#656565" stroke-linecap="round" stroke-linejoin="round"/>
<path d="M11 2L6 7.005L4.5 5.505" stroke="#656565" stroke-linecap="round" stroke-linejoin="round"/>
</g>
<defs>
<clipPath id="clip0_879_10620">
<rect width="12" height="12" fill="white"/>
</clipPath>
</defs>
</svg>
