<svg width="24" height="24" viewBox="0 0 24 24" fill="none" xmlns="http://www.w3.org/2000/svg">
<mask id="path-1-inside-1_206_2598" fill="white">
<path d="M21.4279 12.258C21.4749 12.1802 21.4997 12.091 21.4997 12C21.4997 11.9091 21.4749 11.8199 21.4279 11.742C20.4317 10.1389 19.0432 8.8162 17.3935 7.89906C15.7438 6.98192 13.8874 6.50061 12 6.50061C10.1125 6.50061 8.25614 6.98192 6.60644 7.89906C4.95674 8.8162 3.56817 10.1389 2.57195 11.742C2.52504 11.8199 2.50024 11.9091 2.50024 12C2.50024 12.091 2.52504 12.1802 2.57195 12.258C3.56817 13.8612 4.95674 15.1839 6.60644 16.101C8.25614 17.0182 10.1125 17.4995 12 17.4995C13.8874 17.4995 15.7438 17.0182 17.3935 16.101C19.0432 15.1839 20.4317 13.8612 21.4279 12.258ZM12 16.5C10.3347 16.5065 8.69406 16.0986 7.22576 15.313C5.75746 14.5274 4.50765 13.3889 3.58895 12C4.51242 10.6158 5.76325 9.48093 7.23047 8.696C8.6977 7.91108 10.336 7.50041 12 7.50041C13.6639 7.50041 15.3022 7.91108 16.7694 8.696C18.2367 9.48093 19.4875 10.6158 20.4109 12C19.4922 13.3889 18.2424 14.5274 16.7741 15.313C15.3058 16.0986 13.6652 16.5065 12 16.5Z"/>
</mask>
<path d="M21.4997 12H20.4997H21.4997ZM21.4279 11.742L22.2846 11.226L22.2773 11.2142L21.4279 11.742ZM2.57195 11.742L1.7225 11.2142L1.71536 11.226L2.57195 11.742ZM2.57195 12.258L1.71528 12.7741L1.72258 12.7858L2.57195 12.258ZM12 17.4995V16.4995V17.4995ZM12 16.5L12.0038 15.5L11.9961 15.5L12 16.5ZM3.58895 12L2.75708 11.4451L2.38841 11.9977L2.7549 12.5517L3.58895 12ZM12 7.50041V8.50041V7.50041ZM20.4109 12L21.245 12.5517L21.6115 11.9977L21.2428 11.4451L20.4109 12ZM22.2845 12.774C22.4253 12.5404 22.4997 12.2728 22.4997 12H20.4997C20.4997 11.9091 20.5245 11.8199 20.5714 11.742L22.2845 12.774ZM22.4997 12C22.4997 11.7273 22.4253 11.4597 22.2845 11.226L20.5714 12.258C20.5245 12.1802 20.4997 12.091 20.4997 12H22.4997ZM22.2773 11.2142C21.1914 9.46663 19.6777 8.02481 17.8794 7.02505L16.9076 8.77307C18.4086 9.60759 19.6721 10.8111 20.5786 12.2698L22.2773 11.2142ZM17.8794 7.02505C16.081 6.02529 14.0575 5.50061 12 5.50061V7.50061C13.7174 7.50061 15.4065 7.93856 16.9076 8.77307L17.8794 7.02505ZM12 5.50061C9.94241 5.50061 7.91886 6.02529 6.12054 7.02505L7.09234 8.77307C8.59342 7.93856 10.2825 7.50061 12 7.50061V5.50061ZM6.12054 7.02505C4.32222 8.02481 2.80855 9.46663 1.72258 11.2142L3.42132 12.2698C4.32779 10.8111 5.59127 9.60759 7.09234 8.77307L6.12054 7.02505ZM1.71536 11.226C1.57462 11.4597 1.50024 11.7273 1.50024 12H3.50024C3.50024 12.091 3.47545 12.1802 3.42854 12.258L1.71536 11.226ZM1.50024 12C1.50024 12.2728 1.57462 12.5404 1.71536 12.774L3.42854 11.742C3.47545 11.8199 3.50024 11.9091 3.50024 12H1.50024ZM1.72258 12.7858C2.80855 14.5335 4.32222 15.9753 6.12054 16.975L7.09234 15.227C5.59127 14.3925 4.32779 13.189 3.42132 11.7302L1.72258 12.7858ZM6.12054 16.975C7.91886 17.9748 9.94241 18.4995 12 18.4995V16.4995C10.2825 16.4995 8.59342 16.0615 7.09234 15.227L6.12054 16.975ZM12 18.4995C14.0575 18.4995 16.081 17.9748 17.8794 16.975L16.9076 15.227C15.4065 16.0615 13.7174 16.4995 12 16.4995V18.4995ZM17.8794 16.975C19.6777 15.9753 21.1914 14.5335 22.2773 12.7858L20.5786 11.7302C19.6721 13.189 18.4086 14.3925 16.9076 15.227L17.8794 16.975ZM11.9961 15.5C10.4967 15.5059 9.01952 15.1386 7.6975 14.4313L6.75402 16.1947C8.36859 17.0586 10.1727 17.5071 12.0038 17.5L11.9961 15.5ZM7.6975 14.4313C6.37547 13.724 5.25018 12.6989 4.423 11.4483L2.7549 12.5517C3.76513 14.079 5.13944 15.3309 6.75402 16.1947L7.6975 14.4313ZM4.42082 12.555C5.25296 11.3077 6.38007 10.285 7.70218 9.57776L6.75876 7.81425C5.14642 8.6768 3.77189 9.92395 2.75708 11.4451L4.42082 12.555ZM7.70218 9.57776C9.0243 8.87047 10.5005 8.50041 12 8.50041V6.50041C10.1714 6.50041 8.3711 6.9517 6.75876 7.81425L7.70218 9.57776ZM12 8.50041C13.4994 8.50041 14.9756 8.87047 16.2977 9.57776L17.2411 7.81425C15.6288 6.9517 13.8285 6.50041 12 6.50041V8.50041ZM16.2977 9.57776C17.6198 10.285 18.7469 11.3077 19.5791 12.555L21.2428 11.4451C20.228 9.92395 18.8535 8.6768 17.2411 7.81425L16.2977 9.57776ZM19.5769 11.4483C18.7497 12.6989 17.6244 13.724 16.3024 14.4313L17.2459 16.1947C18.8605 15.3309 20.2348 14.079 21.245 12.5517L19.5769 11.4483ZM16.3024 14.4313C14.9804 15.1386 13.5032 15.5059 12.0038 15.5L11.9961 17.5C13.8272 17.5071 15.6313 17.0586 17.2459 16.1947L16.3024 14.4313Z" fill="white" mask="url(#path-1-inside-1_206_2598)"/>
<mask id="path-3-inside-2_206_2598" fill="white">
<path d="M12 8.5C11.3078 8.5 10.6311 8.70527 10.0555 9.08986C9.47993 9.47444 9.03133 10.0211 8.76642 10.6606C8.50152 11.3001 8.4322 12.0039 8.56725 12.6828C8.7023 13.3618 9.03564 13.9854 9.52513 14.4749C10.0146 14.9644 10.6383 15.2977 11.3172 15.4327C11.9961 15.5678 12.6999 15.4985 13.3394 15.2336C13.9789 14.9687 14.5256 14.5201 14.9101 13.9445C15.2947 13.3689 15.5 12.6922 15.5 12C15.5 11.0717 15.1313 10.1815 14.4749 9.52513C13.8185 8.86875 12.9283 8.5 12 8.5ZM12 14.5C11.5055 14.5 11.0222 14.3534 10.6111 14.0787C10.2 13.804 9.87952 13.4135 9.6903 12.9567C9.50108 12.4999 9.45158 11.9972 9.54804 11.5123C9.6445 11.0273 9.8826 10.5819 10.2322 10.2322C10.5819 9.8826 11.0273 9.6445 11.5123 9.54804C11.9972 9.45157 12.4999 9.50108 12.9567 9.6903C13.4135 9.87952 13.804 10.2 14.0787 10.6111C14.3534 11.0222 14.5 11.5055 14.5 12C14.5 12.663 14.2366 13.2989 13.7678 13.7678C13.2989 14.2366 12.663 14.5 12 14.5Z"/>
</mask>
<path d="M12 7.5C11.11 7.5 10.24 7.76392 9.49994 8.25839L10.6111 9.92133C11.0222 9.64662 11.5055 9.5 12 9.5V7.5ZM9.49994 8.25839C8.75991 8.75285 8.18314 9.45566 7.84254 10.2779L9.6903 11.0433C9.87952 10.5865 10.2 10.196 10.6111 9.92133L9.49994 8.25839ZM7.84254 10.2779C7.50195 11.1002 7.41283 12.005 7.58647 12.8779L9.54804 12.4877C9.45158 12.0028 9.50108 11.5001 9.6903 11.0433L7.84254 10.2779ZM7.58647 12.8779C7.7601 13.7508 8.18869 14.5526 8.81802 15.182L10.2322 13.7678C9.8826 13.4181 9.6445 12.9727 9.54804 12.4877L7.58647 12.8779ZM8.81802 15.182C9.44736 15.8113 10.2492 16.2399 11.1221 16.4135L11.5123 14.452C11.0273 14.3555 10.5819 14.1174 10.2322 13.7678L8.81802 15.182ZM11.1221 16.4135C11.995 16.5872 12.8998 16.4981 13.7221 16.1575L12.9567 14.3097C12.4999 14.4989 11.9972 14.5484 11.5123 14.452L11.1221 16.4135ZM13.7221 16.1575C14.5443 15.8169 15.2471 15.2401 15.7416 14.5001L14.0787 13.3889C13.804 13.8 13.4135 14.1205 12.9567 14.3097L13.7221 16.1575ZM15.7416 14.5001C16.2361 13.76 16.5 12.89 16.5 12H14.5C14.5 12.4945 14.3534 12.9778 14.0787 13.3889L15.7416 14.5001ZM16.5 12C16.5 10.8065 16.0259 9.66193 15.182 8.81802L13.7678 10.2322C14.2366 10.7011 14.5 11.337 14.5 12H16.5ZM15.182 8.81802C14.3381 7.97411 13.1935 7.5 12 7.5V9.5C12.663 9.5 13.2989 9.76339 13.7678 10.2322L15.182 8.81802ZM12 13.5C11.7033 13.5 11.4133 13.412 11.1666 13.2472L10.0555 14.9101C10.6311 15.2947 11.3078 15.5 12 15.5V13.5ZM11.1666 13.2472C10.92 13.0824 10.7277 12.8481 10.6142 12.574L8.76642 13.3394C9.03133 13.9789 9.47993 14.5256 10.0555 14.9101L11.1666 13.2472ZM10.6142 12.574C10.5007 12.2999 10.4709 11.9983 10.5288 11.7074L8.56725 11.3172C8.4322 11.9961 8.50152 12.6999 8.76642 13.3394L10.6142 12.574ZM10.5288 11.7074C10.5867 11.4164 10.7296 11.1491 10.9393 10.9393L9.52513 9.52513C9.03564 10.0146 8.7023 10.6382 8.56725 11.3172L10.5288 11.7074ZM10.9393 10.9393C11.1491 10.7296 11.4164 10.5867 11.7074 10.5288L11.3172 8.56725C10.6383 8.7023 10.0146 9.03564 9.52513 9.52513L10.9393 10.9393ZM11.7074 10.5288C11.9983 10.4709 12.2999 10.5006 12.574 10.6142L13.3394 8.76642C12.6999 8.50151 11.9961 8.4322 11.3172 8.56725L11.7074 10.5288ZM12.574 10.6142C12.8481 10.7277 13.0824 10.92 13.2472 11.1666L14.9101 10.0555C14.5256 9.47993 13.9789 9.03133 13.3394 8.76642L12.574 10.6142ZM13.2472 11.1666C13.412 11.4133 13.5 11.7033 13.5 12H15.5C15.5 11.3078 15.2947 10.6311 14.9101 10.0555L13.2472 11.1666ZM13.5 12C13.5 12.3978 13.342 12.7794 13.0607 13.0607L14.4749 14.4749C15.1313 13.8185 15.5 12.9283 15.5 12H13.5ZM13.0607 13.0607C12.7794 13.342 12.3978 13.5 12 13.5V15.5C12.9283 15.5 13.8185 15.1313 14.4749 14.4749L13.0607 13.0607Z" fill="white" mask="url(#path-3-inside-2_206_2598)"/>
<path d="M11.8428 11.7647C11.8893 11.7337 11.9439 11.7171 11.9997 11.717C12.0748 11.7172 12.1468 11.7471 12.1999 11.8002C12.253 11.8533 12.2829 11.9253 12.283 12.0004C12.283 12.0562 12.2664 12.1108 12.2353 12.1573C12.2043 12.2038 12.1601 12.2401 12.1083 12.2615C12.0566 12.2829 11.9997 12.2885 11.9448 12.2776C11.8899 12.2667 11.8395 12.2397 11.7999 12.2002C11.7604 12.1606 11.7334 12.1101 11.7225 12.0553C11.7116 12.0004 11.7172 11.9435 11.7386 11.8917C11.76 11.84 11.7963 11.7958 11.8428 11.7647Z" stroke="white"/>
</svg>
