<svg width="13" height="18" viewBox="0 0 13 18" fill="none" xmlns="http://www.w3.org/2000/svg">
<g clip-path="url(#clip0_206_2072)">
<path d="M12.4928 7.97759V7.98V15.2625C12.4928 16.5043 11.5146 17.4925 10.3639 17.4925H2.62889C1.4782 17.4925 0.5 16.5043 0.5 15.2625V7.98C0.5 6.73819 1.4782 5.75 2.62889 5.75H10.3711C11.5222 5.75 12.4988 6.73808 12.4928 7.97759ZM12.0556 7.98C12.0556 7.04681 11.3149 6.25 10.3711 6.25H2.62889C1.68319 6.25 0.944444 7.04882 0.944444 7.9875V15.27C0.944444 16.2008 1.68352 17.0016 2.63151 16.9925H10.3711C11.3129 16.9925 12.0556 16.2052 12.0556 15.2625V7.98Z" stroke="#656565"/>
<path d="M9.38897 5.75H9.88897V5.25V3.66C9.88897 2.20931 8.75106 1 7.30897 1H5.69119C4.2491 1 3.11119 2.20931 3.11119 3.66V5.25V5.75H3.61119H9.38897ZM5.69119 0.5H7.30897C8.95076 0.5 10.3334 1.90819 10.3334 3.66V6.25H2.66675V3.66C2.66675 1.90819 4.0494 0.5 5.69119 0.5Z" stroke="#656565"/>
<path d="M6.27783 9.75C6.27783 9.59569 6.39659 9.5 6.50005 9.5C6.60352 9.5 6.72228 9.59569 6.72228 9.75V12.75C6.72228 12.9043 6.60352 13 6.50005 13C6.39659 13 6.27783 12.9043 6.27783 12.75V9.75Z" stroke="#656565"/>
</g>
<defs>
<clipPath id="clip0_206_2072">
<rect width="13" height="18" fill="white"/>
</clipPath>
</defs>
</svg>
